# xmcd
#
# Track frame offsets:
#	150
#	80087
#	93719
#	106197
#	119697
#	133662
#	147609
#
# Disc length: 2119 seconds
#
# Revision: 1
# Processed by: cddbd v1.5.2PL0 Copyright (c) Steve Scherf et al.
# Submitted via: audiograbber 1.83.01
#
DISCID=69084507
DTITLE=Marimba Gallito - Desde Guatemala
DYEAR=1998
DGENRE=Latin
TTITLE0=Popurri
TTITLE1=Santiaguito
TTITLE2=Chichicastenango
TTITLE3=Luna de Xelaju
TTITLE4=Juventud Antigueña
TTITLE5=Tristezas Quezaltecas
TTITLE6=Cuando Llora el Indito
EXTD=
EXTT0=
EXTT1=
EXTT2=
EXTT3=
EXTT4=
EXTT5=
EXTT6=
PLAYORDER=
